<?xml version="1.0" encoding="UTF-8"?>
<!DOCTYPE svg PUBLIC "-//W3C//DTD SVG 1.1//EN" "http://www.w3.org/Graphics/SVG/1.1/DTD/svg11.dtd">
<!-- Creator: CorelDRAW 2020 (64-Bit) -->
<svg xmlns="http://www.w3.org/2000/svg" xml:space="preserve" width="8.4666mm" height="8.4666mm" version="1.1" style="shape-rendering:geometricPrecision; text-rendering:geometricPrecision; image-rendering:optimizeQuality; fill-rule:evenodd; clip-rule:evenodd"
viewBox="0 0 846.66 846.66"
 xmlns:xlink="http://www.w3.org/1999/xlink"
 xmlns:xodm="http://www.corel.com/coreldraw/odm/2003">
 <defs>
  <style type="text/css">
   <![CDATA[
    .fil0 {fill:black}
   ]]>
  </style>
 </defs>
 <g id="Layer_x0020_1">
  <metadata id="CorelCorpID_0Corel-Layer"/>
  <g id="_2995750162624">
   <path class="fil0" d="M617.57 570.69c0,24.86 -6.56,47.38 -22.28,64.98 -2.14,2.39 -3.27,4.35 -5.61,6.59 -68.37,65.49 -183.31,8.33 -163.44,-89.33 1.9,-9.35 5.74,-18.11 9.96,-25.7 4.75,-8.54 9.42,-13.97 16,-20.57 28.11,-28.14 70.75,-36.16 106.53,-20.68 33.21,14.35 58.84,47.59 58.84,84.71zm-438.14 -40.35c0,-23.28 5.26,-39.64 17.06,-57.04 8.03,-11.85 24.53,-26.65 38.01,-32.35 39.54,-16.77 80.61,-10.74 111.22,19.73 28.24,28.12 35.03,68.89 19.21,106.01 -9.1,21.36 -26.99,37.89 -47.58,48.11 -23.2,11.53 -54.13,12 -79.1,1.2 -5.47,-2.37 -10.53,-4.95 -15.3,-8.14 -2.73,-1.82 -4.66,-3.21 -7.07,-5.14 -19.15,-15.32 -36.45,-40.75 -36.45,-72.38zm242.05 -147.29c23.24,0 43.16,20.12 43.16,42.22 0,44.51 -61.51,60.66 -81.95,18.16 -2.17,-4.51 -4.16,-11.35 -4.32,-17.28 -0.58,-21.31 18.78,-43.1 43.11,-43.1zm51.61 -63.8c0,-44.75 31.95,-82.77 74.48,-93.47 7.15,-1.8 14.19,-2.15 21.5,-2.94 9.57,-1.03 29.77,3.79 39.39,7.94 8.55,3.7 15.31,7.64 22.37,13.28 34.4,27.51 46.3,73.79 28,114.59 -14.31,31.93 -48.99,56.3 -84.42,56.3 -30.25,0 -52.88,-8.4 -73.41,-28.85 -8.08,-8.04 -14.02,-16.71 -19.17,-27.75 -5.02,-10.78 -8.74,-26.71 -8.74,-39.1zm-243.95 -42.22c0,-16.97 1.72,-30.72 8.75,-44.74 18.29,-36.39 49.09,-55.64 91.64,-55.64 65.76,0 118.61,75.23 80.99,142.9 -12.77,22.99 -35.64,39.71 -61.64,46.25 -20.64,5.19 -43.22,2.4 -60.23,-4.72 -16.28,-6.81 -29.94,-17.21 -40.36,-30.95 -8.77,-11.56 -19.15,-33.34 -19.15,-53.1zm-147.29 146.36c0,58.26 15.27,109.22 36.28,151.36 2.52,5.08 4.55,8.49 7.19,13.45 9,16.92 22.11,34.5 34.1,49.4 24.59,30.55 56.5,56.66 90.18,76.82 9.06,5.42 17.99,9.62 27.71,14.52 37.49,18.9 94.4,32.21 135.72,32.21 40.8,0 54.22,-0.81 94.21,-9.94 5.77,-1.32 10.36,-2.89 16.11,-4.54 12.9,-3.68 34.53,-11.91 45.43,-17.42 34.8,-17.56 46.66,-24.84 76.14,-48.66l10.88 -9.74c9.61,-9.7 22.76,-22.04 30.67,-32.2 14.83,-19.08 21.27,-26.58 34.26,-49.23 16.86,-29.38 26.9,-56.94 35.32,-90.4 14.88,-59.13 10.08,-125.78 -8.89,-182.7 -20.06,-60.23 -54.28,-107.44 -101.23,-149.27 -2.03,-1.82 -3.48,-2.8 -5.63,-4.69 -19.43,-17.09 -48.25,-33.11 -70.9,-44.52 -36.07,-18.19 -93.1,-32.21 -135.72,-32.21 -48.17,0 -81.85,3.69 -125.84,19.58 -9.95,3.61 -20.99,7.82 -29.9,12.32 -27.04,13.65 -47.07,24.83 -70.51,43.96 -2.09,1.71 -3.43,2.92 -5.63,4.7 -7.93,6.41 -24.91,23.46 -32.02,30.84l-9.53 11.1c-14.34,18.48 -22.25,28.29 -34.27,49.24 -27.83,48.52 -44.13,107.75 -44.13,166.02z"/>
   <path class="fil0" d="M790.2 377.42l1.87 0c0.12,-5.2 17.74,-67.34 19.91,-75.8 13.77,-53.59 -5.03,-106.42 -49.97,-135.25 -25.99,-16.68 -66.12,-22.92 -98.14,-32.28 -3.95,-1.15 -11.31,-3.33 -15.34,-3.42 1.95,2.66 9.64,7.86 12.85,10.6l6.58 5.63c2.52,2.11 3.53,3.76 6.29,5.89 22.34,17.25 51.5,57.84 66.04,80.32 6.28,9.73 11.37,20.34 16.75,31.1 12.95,25.84 25.41,62.95 30.22,91.75 1.16,6.89 2.94,14.07 2.94,21.46z"/>
   <path class="fil0" d="M474.97 788.36c2.31,3.16 3.12,1.77 11.05,3.94l61.56 16.33c43.08,10.75 88.28,0.64 118.54,-29.89 6.41,-6.47 12.21,-12.86 17.08,-20.45 14.03,-21.87 14.15,-31.84 20.8,-54.26l15.83 -59.22c-0.93,0.63 -32.14,39.02 -46.51,50.12l-55.58 42c-37.72,22.74 -77.34,39.38 -121.59,48.23 -6.24,1.24 -14.71,3.2 -21.18,3.2z"/>
   <path class="fil0" d="M129.7 191.65c1.95,-1.3 23.19,-26.96 33.92,-35.51 2.25,-1.79 3.65,-3.45 5.71,-5.54 13.43,-13.61 43.99,-34.53 61.16,-44.85 5.11,-3.07 9.69,-5.73 14.92,-8.55 12.95,-6.97 35.08,-16.57 49.07,-21.29 3.45,-1.17 4.73,-2.01 8.23,-3.02 3.92,-1.14 5.7,-1.66 9.35,-2.86 6.25,-2.06 12.13,-3.45 18.42,-5.03l36.92 -8.79 -68.26 -18.06c-37.39,-9.32 -74.65,-3.69 -105.8,19.19 -26.64,19.57 -40.2,43.75 -48.44,77.27 -4.74,19.27 -10.73,37.86 -15.2,57.04z"/>
   <path class="fil0" d="M30.25 572.56c0,27.49 2.65,45.09 16.47,67.96 9.87,16.32 19.41,26.43 34.72,37.53 14.94,10.82 30.58,16.16 50.87,21.38l42.42 11.06c4.55,1.12 10.45,3.37 15.01,3.75 -2.11,-3.18 -2.92,-3.22 -5.75,-5.5 -12.28,-9.86 -24.93,-21.42 -35.3,-33.2l-16.47 -18.24c-9.27,-11.04 -21.83,-28.03 -29.09,-40.34l-16.59 -29.38c-14.33,-28.69 -22.78,-53.66 -30.21,-85.19 -1.05,-4.49 -3.45,-14.77 -3.57,-19.89 -3.27,2.4 -1.03,0.62 -3.86,10.21 -5.47,18.54 -18.65,64.99 -18.65,79.85z"/>
  </g>
 </g>
</svg>
