<?xml version="1.0" encoding="UTF-8"?>
<!DOCTYPE svg PUBLIC "-//W3C//DTD SVG 1.1//EN" "http://www.w3.org/Graphics/SVG/1.1/DTD/svg11.dtd">
<!-- Creator: CorelDRAW 2020 (64-Bit) -->
<svg xmlns="http://www.w3.org/2000/svg" xml:space="preserve" width="8.4666mm" height="8.4666mm" version="1.1" style="shape-rendering:geometricPrecision; text-rendering:geometricPrecision; image-rendering:optimizeQuality; fill-rule:evenodd; clip-rule:evenodd"
viewBox="0 0 846.66 846.66"
 xmlns:xlink="http://www.w3.org/1999/xlink"
 xmlns:xodm="http://www.corel.com/coreldraw/odm/2003">
 <defs>
  <style type="text/css">
   <![CDATA[
    .fil0 {fill:#000018}
    .fil1 {fill:black}
   ]]>
  </style>
 </defs>
 <g id="Layer_x0020_1">
  <metadata id="CorelCorpID_0Corel-Layer"/>
  <g id="_2996115009984">
   <path class="fil0" d="M417.63 200.57c-44.81,-30.01 -75.15,-54.92 -133.58,-68.06 -5.33,-1.2 -20.62,-3 -25.8,-3 4.7,7.04 15.17,12.88 21.63,18.7l79.66 81.64c4.59,4.49 4.99,4.96 8.94,10.28l45.31 56.45 123.67 -99.08 66.45 -44.94c2.57,-1.72 3.84,-2.48 6.94,-4.58l6.5 -5.02 6.59 4.96c42.65,32.68 89.23,82.51 108.9,133.04 2.39,6.15 5.3,10.39 7.69,17.27 29.85,85.95 31.83,156.73 2.38,242.98 -8.12,23.77 -26.32,59.46 -41.58,79.39 -41.8,54.59 -61.65,69.31 -117.39,103.45 -15.47,9.48 -55.14,24.35 -72.98,28.81 -65.98,16.49 -142.42,14.56 -205.49,-9.97 -50.84,-19.78 -83.34,-39.79 -122.59,-79.04 -23.49,-23.49 -19.32,-19.61 -37.41,-43.25 -34.58,-45.15 -61.98,-122.84 -61.98,-179.99 0,-52.79 0.75,-84.95 20.36,-135.19 16.11,-41.28 23.87,-55.03 49.89,-90.29 12.19,-16.51 14.66,-17.85 29.14,-32.32 23.48,-23.49 19.6,-19.32 43.24,-37.41 7.8,-5.97 16.36,-11.01 24.51,-15.82 26.68,-15.8 54.06,-27.52 85.58,-35.4 63.73,-15.93 128.32,-15.11 191.16,4.33 7.56,2.34 20.13,5.63 24.69,11.79 -21.25,0.86 -82.57,45.92 -108.07,67.07l-26.36 23.2zm-366.78 215.08c0,82.73 18.3,144.36 58.02,206.98 3.38,5.34 5.06,9.15 8.86,14.19 13.81,18.29 25.94,33.91 42.1,50.07 15.75,15.75 31.18,27.57 49.01,41.25 51.42,39.48 141.42,67.74 206.87,67.74 86.28,0 129.11,-15.95 192.67,-49.3 6.67,-3.5 8.49,-5.04 14.32,-8.72l13.83 -9.22c41.75,-29.32 66.44,-55.81 96.4,-97.56 67.94,-94.68 82.83,-239.07 34.82,-350.47 -5.52,-12.79 -11.45,-26.64 -17.93,-37.76 -23.13,-39.71 -40.14,-60.19 -71.48,-91.75 -5.45,-5.49 -8.84,-6.94 -14.41,-12.48 -3.12,-3.11 -11.56,-10.4 -15.85,-11.04 2.18,-4.97 1.23,-4.68 8.44,-8.86 11.41,-6.62 65.76,-38.71 70.29,-44.9 -44.53,0 -62.9,1.02 -103.29,10.02 -4.3,0.96 -8.99,2.56 -15,4.19 -12.72,3.45 -9.98,2.46 -14.21,6.91 -2.84,-4.51 0.42,-2.6 -6.99,-6.57 -48.97,-26.21 -114.69,-37.59 -171.61,-37.59 -58.76,0 -106.43,16.11 -148.48,33.95 -25.09,10.64 -61.72,34.67 -83.38,52.96l-12.38 10.67c-4.06,3.18 -7.77,7.54 -11.64,11.4 -20.57,20.57 -24.1,26.67 -41.25,49.01 -4.12,5.36 -5.36,8.15 -8.97,14.07 -35,57.48 -58.76,115.9 -58.76,192.81z"/>
   <path class="fil1" d="M206.4 525.11c17.82,33.68 13.85,26.89 34.56,53.77 39.56,51.35 115.49,84.49 180.51,84.49 48.3,0 73.78,-14.31 86.42,-15.36 -1.71,-7.36 -5.74,-14.69 -8.78,-21.95l-27.7 -66.39c-13.02,3.03 -36.12,11.64 -55.11,9.15 -8.95,-1.17 -18.82,-2.07 -28.28,-4.5 -24.57,-6.33 -47.76,-17.95 -65.98,-35.8 -7.94,-7.78 -24.62,-28.38 -27.31,-39.9 -8.86,2.06 -13.71,4.94 -22.22,8.5l-66.11 27.99z"/>
   <path class="fil1" d="M557.82 373.4c0.19,8.67 2.82,13.95 4.62,22.26 8.41,38.76 -0.68,77.91 -20.33,107.98 -13.51,20.67 -31.35,36.67 -53.42,48.35 3.23,6.74 5.85,14.16 9.07,21.66 3.3,7.71 5.97,13.71 9.49,21.24l17.92 43.52c27.67,-6.45 73.95,-50.97 91.82,-77.17 34.77,-50.97 52.5,-120.33 37.97,-185.12 -3.26,-14.56 -7.8,-24.73 -10.72,-37.29 -7.14,0.6 -15.59,5.17 -21.18,7.63l-43.02 18.43c-8.51,3.57 -13.36,6.44 -22.22,8.51z"/>
   <path class="fil0" d="M198.71 507.82l86.42 -36.48c-0.25,-11.31 -5.76,-13.25 -5.76,-57.61 0,-23.31 12.98,-53.42 22.73,-67.53 12.73,-18.42 16.97,-21.84 32.5,-34.71 5.15,-4.27 8.14,-6.1 13.9,-9.14l-61.45 -72.98c-34.8,23.31 -71.72,67.18 -87.15,110.65 -9.93,27.96 -14.07,48.63 -16.52,83.48l4.62 45.11c2.97,16.58 7.52,25.49 10.71,39.21z"/>
   <path class="fil1" d="M484.85 296.58c17.41,4.65 39.58,26.59 51.04,41.14 5.38,6.83 7.87,11.73 12.33,18.4l86.41 -36.49c-7.4,-27.74 -46.92,-65.19 -69.13,-84.5 -6.76,4.53 -12.47,9.43 -19.97,14.59 -7.74,5.33 -13.46,10 -20.9,15.59 -9.69,7.28 -34.43,23.28 -39.78,31.27z"/>
  </g>
 </g>
</svg>
